# xmcd CD database file
#
# Track frame offsets:
#	150
#	21556
#	42010
#	64715
#	86465
#	104871
#	129173
#	147524
#	165190
#	182345
#	202303
#	217995
#	241715
#
# Disc length: 3451 seconds
#
# Revision: 2
# Processed by: cddbd v1.5.2PL0 Copyright (c) Steve Scherf et al.
# Submitted via: CDex 1.70beta3
#
DISCID=b00d790d
DTITLE=田村ゆかり - Everlasting Gift
DYEAR=2012
DGENRE=特撮
TTITLE0=星空のSpica
TTITLE1=Beautiful Amulet
TTITLE2=バンビーノ・バンビーナ
TTITLE3=Tomorrow
TTITLE4=You and Me　田村ゆかり feat. motsu from m.o.v.e
TTITLE5=My wish My love
TTITLE6=おしえて A to Z
TTITLE7=プラチナLover's Day
TTITLE8=Endless Story
TTITLE9=fancy baby doll
TTITLE10=Honey Moon
TTITLE11=夢色ラビリンス
TTITLE12=パーティーは終わらない　田村ゆかり feat. motsu from m.o.v.e
EXTD=YEAR: 2012
EXTT0=
EXTT1=
EXTT2=
EXTT3=
EXTT4=
EXTT5=
EXTT6=
EXTT7=
EXTT8=
EXTT9=
EXTT10=
EXTT11=
EXTT12=
PLAYORDER=
